# xmcd
#
# Track frame offsets:
#	150
#	27069
#	70434
#
# Disc length: 1359 seconds
# Revision: 2
# Processed by: cddbd v1.5.2PL0 Copyright (c) Steve Scherf et al.
# Submitted via: dBpowerAMP V12.0
#
DISCID=20054d03
DTITLE=Lester Levenson - Lester on Stress
DYEAR=2006
DGENRE=Home Study
TTITLE0=Lester on Stress pt 1
TTITLE1=Lester on Stress pt 2
TTITLE2=Lester on Stress pt 3
EXTD=
EXTT0=
EXTT1=
EXTT2=
PLAYORDER=
